ISO-10303-21;
HEADER;
FILE_DESCRIPTION(('ViewDefinition [CoordinationView]'),'2;1');
FILE_NAME('Cottage.ifc','2026-08-12T00:00:00',('van Deventer'),('Luleå University of Technology'),'ifcgen','github.com/vanDeventer/ifc','');
FILE_SCHEMA(('IFC4'));
ENDSEC;
DATA;
#1=IFCPERSON($,'van Deventer','Jan',$,$,$,$,$);
#2=IFCORGANIZATION($,'Luleå University of Technology',$,$,$);
#3=IFCPERSONANDORGANIZATION(#1,#2,$);
#4=IFCAPPLICATION(#2,'0.1','ifcgen','ifcgen');
#5=IFCOWNERHISTORY(#3,#4,$,.ADDED.,$,$,$,1786492800);
#6=IFCSIUNIT(*,.LENGTHUNIT.,.MILLI.,.METRE.);
#7=IFCSIUNIT(*,.AREAUNIT.,$,.SQUARE_METRE.);
#8=IFCSIUNIT(*,.VOLUMEUNIT.,$,.CUBIC_METRE.);
#9=IFCSIUNIT(*,.PLANEANGLEUNIT.,$,.RADIAN.);
#10=IFCUNITASSIGNMENT((#6,#7,#8,#9));
#11=IFCCARTESIANPOINT((0.,0.,0.));
#12=IFCAXIS2PLACEMENT3D(#11,$,$);
#13=IFCDIRECTION((-0.3826834323650898,0.9238795325112867));
#14=IFCGEOMETRICREPRESENTATIONCONTEXT($,'Model',3,0.00001,#12,#13);
#15=IFCGEOMETRICREPRESENTATIONSUBCONTEXT('Body','Model',*,*,*,*,#14,$,.MODEL_VIEW.,$);
#16=IFCPROJECT('16_6_gQx_QoKf_HPK9eWxG',#5,'Cottage',$,$,$,$,(#14),#10);
#17=IFCLOCALPLACEMENT($,#12);
#18=IFCSITE('2Otlrkvmtx7Uf1REpVEHzO',#5,'Site',$,$,#17,$,$,.ELEMENT.,$,$,0.,$,$);
#19=IFCCARTESIANPOINT((0.,0.,0.));
#20=IFCAXIS2PLACEMENT3D(#19,$,$);
#21=IFCLOCALPLACEMENT(#17,#20);
#22=IFCBUILDING('0R8Ea26peMi5aeVAtSU6Bs',#5,'Cottage',$,$,#21,$,$,.ELEMENT.,$,$,$);
#23=IFCCARTESIANPOINT((0.,0.,0.));
#24=IFCAXIS2PLACEMENT3D(#23,$,$);
#25=IFCLOCALPLACEMENT(#21,#24);
#26=IFCBUILDINGSTOREY('2xIpuRJ8qeHpBXBvT0C42n',#5,'Ground floor',$,$,#25,$,$,.ELEMENT.,0.);
#27=IFCRELAGGREGATES('3R3H69lmJNWUj$jDhv5u5t',#5,$,$,#16,(#18));
#28=IFCRELAGGREGATES('2Q417Y7Q_hnZsm8HZLo082',#5,$,$,#18,(#22));
#29=IFCRELAGGREGATES('3JxgyCmGt7HWJWSxfAtCT6',#5,$,$,#22,(#26));
#30=IFCCARTESIANPOINT((0.,0.,-150.));
#31=IFCAXIS2PLACEMENT3D(#30,$,$);
#32=IFCLOCALPLACEMENT(#25,#31);
#33=IFCCARTESIANPOINT((-170.,4020.));
#34=IFCCARTESIANPOINT((4170.,4020.));
#35=IFCCARTESIANPOINT((4170.,-170.));
#36=IFCCARTESIANPOINT((8110.,-170.));
#37=IFCCARTESIANPOINT((8110.,8770.));
#38=IFCCARTESIANPOINT((-170.,8770.));
#39=IFCPOLYLINE((#33,#34,#35,#36,#37,#38,#33));
#40=IFCARBITRARYCLOSEDPROFILEDEF(.AREA.,'Floor',#39);
#41=IFCCARTESIANPOINT((0.,0.,0.));
#42=IFCAXIS2PLACEMENT3D(#41,$,$);
#43=IFCDIRECTION((0.,0.,1.));
#44=IFCEXTRUDEDAREASOLID(#40,#42,#43,150.);
#45=IFCSHAPEREPRESENTATION(#15,'Body','SweptSolid',(#44));
#46=IFCPRODUCTDEFINITIONSHAPE($,$,(#45));
#47=IFCSLAB('2PRhysAsnVP_NSJoazK6GC',#5,'Floor slab',$,$,#32,#46,$,.FLOOR.);
#48=IFCCARTESIANPOINT((-170.,8685.,0.));
#49=IFCDIRECTION((0.,0.,1.));
#50=IFCDIRECTION((1.,0.,0.));
#51=IFCAXIS2PLACEMENT3D(#48,#49,#50);
#52=IFCLOCALPLACEMENT(#25,#51);
#53=IFCCARTESIANPOINT((4140.,0.));
#54=IFCAXIS2PLACEMENT2D(#53,$);
#55=IFCRECTANGLEPROFILEDEF(.AREA.,'Back',#54,8280.,170.);
#56=IFCCARTESIANPOINT((0.,0.,0.));
#57=IFCAXIS2PLACEMENT3D(#56,$,$);
#58=IFCDIRECTION((0.,0.,1.));
#59=IFCEXTRUDEDAREASOLID(#55,#57,#58,2200.);
#60=IFCSHAPEREPRESENTATION(#15,'Body','SweptSolid',(#59));
#61=IFCPRODUCTDEFINITIONSHAPE($,$,(#60));
#62=IFCWALL('0UfH1vrLfsw0epPFcMJArB',#5,'Back',$,$,#52,#61,$,.SOLIDWALL.);
#63=IFCCARTESIANPOINT((-170.,4105.,0.));
#64=IFCDIRECTION((0.,0.,1.));
#65=IFCDIRECTION((1.,0.,0.));
#66=IFCAXIS2PLACEMENT3D(#63,#64,#65);
#67=IFCLOCALPLACEMENT(#25,#66);
#68=IFCCARTESIANPOINT((2255.,0.));
#69=IFCAXIS2PLACEMENT2D(#68,$);
#70=IFCRECTANGLEPROFILEDEF(.AREA.,'Front',#69,4510.,170.);
#71=IFCCARTESIANPOINT((0.,0.,0.));
#72=IFCAXIS2PLACEMENT3D(#71,$,$);
#73=IFCDIRECTION((0.,0.,1.));
#74=IFCEXTRUDEDAREASOLID(#70,#72,#73,2200.);
#75=IFCSHAPEREPRESENTATION(#15,'Body','SweptSolid',(#74));
#76=IFCPRODUCTDEFINITIONSHAPE($,$,(#75));
#77=IFCWALL('0cBMjNcFAYWuf1Yu2rQsgH',#5,'Front',$,$,#67,#76,$,.SOLIDWALL.);
#78=IFCCARTESIANPOINT((-85.,4020.,0.));
#79=IFCDIRECTION((0.,0.,1.));
#80=IFCDIRECTION((0.,1.,0.));
#81=IFCAXIS2PLACEMENT3D(#78,#79,#80);
#82=IFCLOCALPLACEMENT(#25,#81);
#83=IFCCARTESIANPOINT((2375.,0.));
#84=IFCAXIS2PLACEMENT2D(#83,$);
#85=IFCRECTANGLEPROFILEDEF(.AREA.,'West',#84,4750.,170.);
#86=IFCCARTESIANPOINT((0.,0.,0.));
#87=IFCAXIS2PLACEMENT3D(#86,$,$);
#88=IFCDIRECTION((0.,0.,1.));
#89=IFCEXTRUDEDAREASOLID(#85,#87,#88,2200.);
#90=IFCSHAPEREPRESENTATION(#15,'Body','SweptSolid',(#89));
#91=IFCPRODUCTDEFINITIONSHAPE($,$,(#90));
#92=IFCWALL('086sdHFwwt7nf0nr$SCRPf',#5,'West',$,$,#82,#91,$,.SOLIDWALL.);
#93=IFCCARTESIANPOINT((8025.,4020.,0.));
#94=IFCDIRECTION((0.,0.,1.));
#95=IFCDIRECTION((0.,1.,0.));
#96=IFCAXIS2PLACEMENT3D(#93,#94,#95);
#97=IFCLOCALPLACEMENT(#25,#96);
#98=IFCCARTESIANPOINT((2375.,0.));
#99=IFCAXIS2PLACEMENT2D(#98,$);
#100=IFCRECTANGLEPROFILEDEF(.AREA.,'EastBase',#99,4750.,170.);
#101=IFCCARTESIANPOINT((0.,0.,0.));
#102=IFCAXIS2PLACEMENT3D(#101,$,$);
#103=IFCDIRECTION((0.,0.,1.));
#104=IFCEXTRUDEDAREASOLID(#100,#102,#103,2200.);
#105=IFCSHAPEREPRESENTATION(#15,'Body','SweptSolid',(#104));
#106=IFCPRODUCTDEFINITIONSHAPE($,$,(#105));
#107=IFCWALL('31X4tdKIuGys115sYb3sIy',#5,'EastBase',$,$,#97,#106,$,.SOLIDWALL.);
#108=IFCCARTESIANPOINT((4170.,-85.,0.));
#109=IFCDIRECTION((0.,0.,1.));
#110=IFCDIRECTION((1.,0.,0.));
#111=IFCAXIS2PLACEMENT3D(#108,#109,#110);
#112=IFCLOCALPLACEMENT(#25,#111);
#113=IFCCARTESIANPOINT((1970.,0.));
#114=IFCAXIS2PLACEMENT2D(#113,$);
#115=IFCRECTANGLEPROFILEDEF(.AREA.,'RiseSouth',#114,3940.,170.);
#116=IFCCARTESIANPOINT((0.,0.,0.));
#117=IFCAXIS2PLACEMENT3D(#116,$,$);
#118=IFCDIRECTION((0.,0.,1.));
#119=IFCEXTRUDEDAREASOLID(#115,#117,#118,2500.);
#120=IFCSHAPEREPRESENTATION(#15,'Body','SweptSolid',(#119));
#121=IFCPRODUCTDEFINITIONSHAPE($,$,(#120));
#122=IFCWALL('0Bls$r9uNT66$h8vuRsQfB',#5,'RiseSouth',$,$,#112,#121,$,.SOLIDWALL.);
#123=IFCCARTESIANPOINT((4255.,-170.,0.));
#124=IFCDIRECTION((0.,0.,1.));
#125=IFCDIRECTION((0.,1.,0.));
#126=IFCAXIS2PLACEMENT3D(#123,#124,#125);
#127=IFCLOCALPLACEMENT(#25,#126);
#128=IFCCARTESIANPOINT((2180.,0.));
#129=IFCAXIS2PLACEMENT2D(#128,$);
#130=IFCRECTANGLEPROFILEDEF(.AREA.,'RiseWest',#129,4360.,170.);
#131=IFCCARTESIANPOINT((0.,0.,0.));
#132=IFCAXIS2PLACEMENT3D(#131,$,$);
#133=IFCDIRECTION((0.,0.,1.));
#134=IFCEXTRUDEDAREASOLID(#130,#132,#133,2500.);
#135=IFCSHAPEREPRESENTATION(#15,'Body','SweptSolid',(#134));
#136=IFCPRODUCTDEFINITIONSHAPE($,$,(#135));
#137=IFCWALL('0ve3NA6yXEhD_QsRVBcP3R',#5,'RiseWest',$,$,#127,#136,$,.SOLIDWALL.);
#138=IFCCARTESIANPOINT((8025.,-170.,0.));
#139=IFCDIRECTION((0.,0.,1.));
#140=IFCDIRECTION((0.,1.,0.));
#141=IFCAXIS2PLACEMENT3D(#138,#139,#140);
#142=IFCLOCALPLACEMENT(#25,#141);
#143=IFCCARTESIANPOINT((2180.,0.));
#144=IFCAXIS2PLACEMENT2D(#143,$);
#145=IFCRECTANGLEPROFILEDEF(.AREA.,'EastRise',#144,4360.,170.);
#146=IFCCARTESIANPOINT((0.,0.,0.));
#147=IFCAXIS2PLACEMENT3D(#146,$,$);
#148=IFCDIRECTION((0.,0.,1.));
#149=IFCEXTRUDEDAREASOLID(#145,#147,#148,2500.);
#150=IFCSHAPEREPRESENTATION(#15,'Body','SweptSolid',(#149));
#151=IFCPRODUCTDEFINITIONSHAPE($,$,(#150));
#152=IFCWALL('2Bf3FPwjkUtFMJiyL$JYNG',#5,'EastRise',$,$,#142,#151,$,.SOLIDWALL.);
#153=IFCCARTESIANPOINT((2302.5,6470.,0.));
#154=IFCDIRECTION((0.,0.,1.));
#155=IFCDIRECTION((1.,0.,0.));
#156=IFCAXIS2PLACEMENT3D(#153,#154,#155);
#157=IFCLOCALPLACEMENT(#25,#156);
#158=IFCCARTESIANPOINT((1392.5,0.));
#159=IFCAXIS2PLACEMENT2D(#158,$);
#160=IFCRECTANGLEPROFILEDEF(.AREA.,'BedroomSouth',#159,2785.,95.);
#161=IFCCARTESIANPOINT((0.,0.,0.));
#162=IFCAXIS2PLACEMENT3D(#161,$,$);
#163=IFCDIRECTION((0.,0.,1.));
#164=IFCEXTRUDEDAREASOLID(#160,#162,#163,2200.);
#165=IFCSHAPEREPRESENTATION(#15,'Body','SweptSolid',(#164));
#166=IFCPRODUCTDEFINITIONSHAPE($,$,(#165));
#167=IFCWALL('3f0B$62V67PfzIvpWp3Whz',#5,'BedroomSouth',$,$,#157,#166,$,.PARTITIONING.);
#168=IFCCARTESIANPOINT((2350.,6470.,0.));
#169=IFCDIRECTION((0.,0.,1.));
#170=IFCDIRECTION((0.,1.,0.));
#171=IFCAXIS2PLACEMENT3D(#168,#169,#170);
#172=IFCLOCALPLACEMENT(#25,#171);
#173=IFCCARTESIANPOINT((1065.,0.));
#174=IFCAXIS2PLACEMENT2D(#173,$);
#175=IFCRECTANGLEPROFILEDEF(.AREA.,'BedroomWest',#174,2130.,95.);
#176=IFCCARTESIANPOINT((0.,0.,0.));
#177=IFCAXIS2PLACEMENT3D(#176,$,$);
#178=IFCDIRECTION((0.,0.,1.));
#179=IFCEXTRUDEDAREASOLID(#175,#177,#178,2200.);
#180=IFCSHAPEREPRESENTATION(#15,'Body','SweptSolid',(#179));
#181=IFCPRODUCTDEFINITIONSHAPE($,$,(#180));
#182=IFCWALL('3AZR6dRbw_Ql5bzO2az8Ym',#5,'BedroomWest',$,$,#172,#181,$,.PARTITIONING.);
#183=IFCCARTESIANPOINT((5040.,6470.,0.));
#184=IFCDIRECTION((0.,0.,1.));
#185=IFCDIRECTION((0.,1.,0.));
#186=IFCAXIS2PLACEMENT3D(#183,#184,#185);
#187=IFCLOCALPLACEMENT(#25,#186);
#188=IFCCARTESIANPOINT((1065.,0.));
#189=IFCAXIS2PLACEMENT2D(#188,$);
#190=IFCRECTANGLEPROFILEDEF(.AREA.,'BedroomEast',#189,2130.,95.);
#191=IFCCARTESIANPOINT((0.,0.,0.));
#192=IFCAXIS2PLACEMENT3D(#191,$,$);
#193=IFCDIRECTION((0.,0.,1.));
#194=IFCEXTRUDEDAREASOLID(#190,#192,#193,2200.);
#195=IFCSHAPEREPRESENTATION(#15,'Body','SweptSolid',(#194));
#196=IFCPRODUCTDEFINITIONSHAPE($,$,(#195));
#197=IFCWALL('2OKuZNApK4g5E2gvq2s91L',#5,'BedroomEast',$,$,#187,#196,$,.PARTITIONING.);
#198=IFCCARTESIANPOINT((5992.5,7100.,0.));
#199=IFCDIRECTION((0.,0.,1.));
#200=IFCDIRECTION((1.,0.,0.));
#201=IFCAXIS2PLACEMENT3D(#198,#199,#200);
#202=IFCLOCALPLACEMENT(#25,#201);
#203=IFCCARTESIANPOINT((973.75,0.));
#204=IFCAXIS2PLACEMENT2D(#203,$);
#205=IFCRECTANGLEPROFILEDEF(.AREA.,'BathSouth',#204,1947.5,95.);
#206=IFCCARTESIANPOINT((0.,0.,0.));
#207=IFCAXIS2PLACEMENT3D(#206,$,$);
#208=IFCDIRECTION((0.,0.,1.));
#209=IFCEXTRUDEDAREASOLID(#205,#207,#208,2200.);
#210=IFCSHAPEREPRESENTATION(#15,'Body','SweptSolid',(#209));
#211=IFCPRODUCTDEFINITIONSHAPE($,$,(#210));
#212=IFCWALL('2VawPYkraIx6OAXbp3rQm4',#5,'BathSouth',$,$,#202,#211,$,.PARTITIONING.);
#213=IFCCARTESIANPOINT((6040.,7100.,0.));
#214=IFCDIRECTION((0.,0.,1.));
#215=IFCDIRECTION((0.,1.,0.));
#216=IFCAXIS2PLACEMENT3D(#213,#214,#215);
#217=IFCLOCALPLACEMENT(#25,#216);
#218=IFCCARTESIANPOINT((750.,0.));
#219=IFCAXIS2PLACEMENT2D(#218,$);
#220=IFCRECTANGLEPROFILEDEF(.AREA.,'BathWest',#219,1500.,95.);
#221=IFCCARTESIANPOINT((0.,0.,0.));
#222=IFCAXIS2PLACEMENT3D(#221,$,$);
#223=IFCDIRECTION((0.,0.,1.));
#224=IFCEXTRUDEDAREASOLID(#220,#222,#223,2200.);
#225=IFCSHAPEREPRESENTATION(#15,'Body','SweptSolid',(#224));
#226=IFCPRODUCTDEFINITIONSHAPE($,$,(#225));
#227=IFCWALL('0oqR3rZIAMQOfuh1Jsl6gH',#5,'BathWest',$,$,#217,#226,$,.PARTITIONING.);
#228=IFCCARTESIANPOINT((1345.,0.,1100.));
#229=IFCAXIS2PLACEMENT3D(#228,$,$);
#230=IFCLOCALPLACEMENT(#52,#229);
#231=IFCCARTESIANPOINT((0.,0.));
#232=IFCAXIS2PLACEMENT2D(#231,$);
#233=IFCRECTANGLEPROFILEDEF(.AREA.,'Void',#232,1000.,190.);
#234=IFCCARTESIANPOINT((0.,0.,0.));
#235=IFCAXIS2PLACEMENT3D(#234,$,$);
#236=IFCDIRECTION((0.,0.,1.));
#237=IFCEXTRUDEDAREASOLID(#233,#235,#236,1000.);
#238=IFCSHAPEREPRESENTATION(#15,'Body','SweptSolid',(#237));
#239=IFCPRODUCTDEFINITIONSHAPE($,$,(#238));
#240=IFCOPENINGELEMENT('24WeptL0V$luEMRhzyCLGK',#5,'Kitchen window (back) opening',$,$,#230,#239,$,.OPENING.);
#241=IFCRELVOIDSELEMENT('3O26QFHh2hazPJwbyWKF6K',#5,$,$,#62,#240);
#242=IFCCARTESIANPOINT((1345.,0.,1100.));
#243=IFCAXIS2PLACEMENT3D(#242,$,$);
#244=IFCLOCALPLACEMENT(#52,#243);
#245=IFCCARTESIANPOINT((0.,0.));
#246=IFCAXIS2PLACEMENT2D(#245,$);
#247=IFCRECTANGLEPROFILEDEF(.AREA.,'Panel',#246,1000.,60.);
#248=IFCCARTESIANPOINT((0.,0.,0.));
#249=IFCAXIS2PLACEMENT3D(#248,$,$);
#250=IFCDIRECTION((0.,0.,1.));
#251=IFCEXTRUDEDAREASOLID(#247,#249,#250,1000.);
#252=IFCSHAPEREPRESENTATION(#15,'Body','SweptSolid',(#251));
#253=IFCPRODUCTDEFINITIONSHAPE($,$,(#252));
#254=IFCWINDOW('25fCQSB$x$UFG2snPgDt0P',#5,'Kitchen window (back)',$,$,#244,#253,$,1000.,1000.,.WINDOW.,.SINGLE_PANEL.,$);
#255=IFCRELFILLSELEMENT('3HOQRA$IzzoJHUgFmaW8D5',#5,$,$,#240,#254);
#256=IFCCARTESIANPOINT((3865.,0.,900.));
#257=IFCAXIS2PLACEMENT3D(#256,$,$);
#258=IFCLOCALPLACEMENT(#52,#257);
#259=IFCCARTESIANPOINT((0.,0.));
#260=IFCAXIS2PLACEMENT2D(#259,$);
#261=IFCRECTANGLEPROFILEDEF(.AREA.,'Void',#260,1200.,190.);
#262=IFCCARTESIANPOINT((0.,0.,0.));
#263=IFCAXIS2PLACEMENT3D(#262,$,$);
#264=IFCDIRECTION((0.,0.,1.));
#265=IFCEXTRUDEDAREASOLID(#261,#263,#264,1200.);
#266=IFCSHAPEREPRESENTATION(#15,'Body','SweptSolid',(#265));
#267=IFCPRODUCTDEFINITIONSHAPE($,$,(#266));
#268=IFCOPENINGELEMENT('3wY$_LNqSetX_WWmBTybCQ',#5,'Bedroom window opening',$,$,#258,#267,$,.OPENING.);
#269=IFCRELVOIDSELEMENT('1RVTMSRkfexzhWmVeWaoCj',#5,$,$,#62,#268);
#270=IFCCARTESIANPOINT((3865.,0.,900.));
#271=IFCAXIS2PLACEMENT3D(#270,$,$);
#272=IFCLOCALPLACEMENT(#52,#271);
#273=IFCCARTESIANPOINT((0.,0.));
#274=IFCAXIS2PLACEMENT2D(#273,$);
#275=IFCRECTANGLEPROFILEDEF(.AREA.,'Panel',#274,1200.,60.);
#276=IFCCARTESIANPOINT((0.,0.,0.));
#277=IFCAXIS2PLACEMENT3D(#276,$,$);
#278=IFCDIRECTION((0.,0.,1.));
#279=IFCEXTRUDEDAREASOLID(#275,#277,#278,1200.);
#280=IFCSHAPEREPRESENTATION(#15,'Body','SweptSolid',(#279));
#281=IFCPRODUCTDEFINITIONSHAPE($,$,(#280));
#282=IFCWINDOW('16jEQpq8zY2D4KIpyupimP',#5,'Bedroom window',$,$,#272,#281,$,1200.,1200.,.WINDOW.,.SINGLE_PANEL.,$);
#283=IFCRELFILLSELEMENT('1HM3c_nEA$b$dC0E6ee4zk',#5,$,$,#268,#282);
#284=IFCCARTESIANPOINT((7160.,0.,1500.));
#285=IFCAXIS2PLACEMENT3D(#284,$,$);
#286=IFCLOCALPLACEMENT(#52,#285);
#287=IFCCARTESIANPOINT((0.,0.));
#288=IFCAXIS2PLACEMENT2D(#287,$);
#289=IFCRECTANGLEPROFILEDEF(.AREA.,'Void',#288,600.,190.);
#290=IFCCARTESIANPOINT((0.,0.,0.));
#291=IFCAXIS2PLACEMENT3D(#290,$,$);
#292=IFCDIRECTION((0.,0.,1.));
#293=IFCEXTRUDEDAREASOLID(#289,#291,#292,600.);
#294=IFCSHAPEREPRESENTATION(#15,'Body','SweptSolid',(#293));
#295=IFCPRODUCTDEFINITIONSHAPE($,$,(#294));
#296=IFCOPENINGELEMENT('3hb$Tw3Josxq9VZRkgWYGD',#5,'Bathroom window opening',$,$,#286,#295,$,.OPENING.);
#297=IFCRELVOIDSELEMENT('3AKVxwwY8WfB$fylH04WD6',#5,$,$,#62,#296);
#298=IFCCARTESIANPOINT((7160.,0.,1500.));
#299=IFCAXIS2PLACEMENT3D(#298,$,$);
#300=IFCLOCALPLACEMENT(#52,#299);
#301=IFCCARTESIANPOINT((0.,0.));
#302=IFCAXIS2PLACEMENT2D(#301,$);
#303=IFCRECTANGLEPROFILEDEF(.AREA.,'Panel',#302,600.,60.);
#304=IFCCARTESIANPOINT((0.,0.,0.));
#305=IFCAXIS2PLACEMENT3D(#304,$,$);
#306=IFCDIRECTION((0.,0.,1.));
#307=IFCEXTRUDEDAREASOLID(#303,#305,#306,600.);
#308=IFCSHAPEREPRESENTATION(#15,'Body','SweptSolid',(#307));
#309=IFCPRODUCTDEFINITIONSHAPE($,$,(#308));
#310=IFCWINDOW('29uO8rpjgWILPQSkF5O6yb',#5,'Bathroom window',$,$,#300,#309,$,600.,600.,.WINDOW.,.SINGLE_PANEL.,$);
#311=IFCRELFILLSELEMENT('0D5PsOVRAAbsXBLycWi1Jr',#5,$,$,#296,#310);
#312=IFCCARTESIANPOINT((1420.,0.,1000.));
#313=IFCAXIS2PLACEMENT3D(#312,$,$);
#314=IFCLOCALPLACEMENT(#67,#313);
#315=IFCCARTESIANPOINT((0.,0.));
#316=IFCAXIS2PLACEMENT2D(#315,$);
#317=IFCRECTANGLEPROFILEDEF(.AREA.,'Void',#316,1800.,190.);
#318=IFCCARTESIANPOINT((0.,0.,0.));
#319=IFCAXIS2PLACEMENT3D(#318,$,$);
#320=IFCDIRECTION((0.,0.,1.));
#321=IFCEXTRUDEDAREASOLID(#317,#319,#320,1000.);
#322=IFCSHAPEREPRESENTATION(#15,'Body','SweptSolid',(#321));
#323=IFCPRODUCTDEFINITIONSHAPE($,$,(#322));
#324=IFCOPENINGELEMENT('34ZmQZjEHeDirP01kwzjHn',#5,'Kitchen window (front) opening',$,$,#314,#323,$,.OPENING.);
#325=IFCRELVOIDSELEMENT('37F01LGMbx7EsxaaFnBkED',#5,$,$,#77,#324);
#326=IFCCARTESIANPOINT((1420.,0.,1000.));
#327=IFCAXIS2PLACEMENT3D(#326,$,$);
#328=IFCLOCALPLACEMENT(#67,#327);
#329=IFCCARTESIANPOINT((0.,0.));
#330=IFCAXIS2PLACEMENT2D(#329,$);
#331=IFCRECTANGLEPROFILEDEF(.AREA.,'Panel',#330,1800.,60.);
#332=IFCCARTESIANPOINT((0.,0.,0.));
#333=IFCAXIS2PLACEMENT3D(#332,$,$);
#334=IFCDIRECTION((0.,0.,1.));
#335=IFCEXTRUDEDAREASOLID(#331,#333,#334,1000.);
#336=IFCSHAPEREPRESENTATION(#15,'Body','SweptSolid',(#335));
#337=IFCPRODUCTDEFINITIONSHAPE($,$,(#336));
#338=IFCWINDOW('2xxuou0fenRZFg63mYIksn',#5,'Kitchen window (front)',$,$,#328,#337,$,1000.,1800.,.WINDOW.,.SINGLE_PANEL.,$);
#339=IFCRELFILLSELEMENT('1tZ9hvn2ncRLQirTqVoVum',#5,$,$,#324,#338);
#340=IFCCARTESIANPOINT((3760.,0.,0.));
#341=IFCAXIS2PLACEMENT3D(#340,$,$);
#342=IFCLOCALPLACEMENT(#67,#341);
#343=IFCCARTESIANPOINT((0.,0.));
#344=IFCAXIS2PLACEMENT2D(#343,$);
#345=IFCRECTANGLEPROFILEDEF(.AREA.,'Void',#344,900.,190.);
#346=IFCCARTESIANPOINT((0.,0.,0.));
#347=IFCAXIS2PLACEMENT3D(#346,$,$);
#348=IFCDIRECTION((0.,0.,1.));
#349=IFCEXTRUDEDAREASOLID(#345,#347,#348,2040.);
#350=IFCSHAPEREPRESENTATION(#15,'Body','SweptSolid',(#349));
#351=IFCPRODUCTDEFINITIONSHAPE($,$,(#350));
#352=IFCOPENINGELEMENT('0EZEJtFmdNSLP6aM0gW6pf',#5,'Entrance door opening',$,$,#342,#351,$,.OPENING.);
#353=IFCRELVOIDSELEMENT('0QgioGOHw3fHRONsYtn6wM',#5,$,$,#77,#352);
#354=IFCCARTESIANPOINT((3760.,0.,0.));
#355=IFCAXIS2PLACEMENT3D(#354,$,$);
#356=IFCLOCALPLACEMENT(#67,#355);
#357=IFCCARTESIANPOINT((0.,0.));
#358=IFCAXIS2PLACEMENT2D(#357,$);
#359=IFCRECTANGLEPROFILEDEF(.AREA.,'Panel',#358,900.,60.);
#360=IFCCARTESIANPOINT((0.,0.,0.));
#361=IFCAXIS2PLACEMENT3D(#360,$,$);
#362=IFCDIRECTION((0.,0.,1.));
#363=IFCEXTRUDEDAREASOLID(#359,#361,#362,2040.);
#364=IFCSHAPEREPRESENTATION(#15,'Body','SweptSolid',(#363));
#365=IFCPRODUCTDEFINITIONSHAPE($,$,(#364));
#366=IFCDOOR('39J88Z8Zi35d65D6_NVb8w',#5,'Entrance door',$,$,#356,#365,$,2040.,900.,.DOOR.,.SINGLE_SWING_LEFT.,$);
#367=IFCRELFILLSELEMENT('0hFfaJyzyRCyB_9TVaes0P',#5,$,$,#352,#366);
#368=IFCCARTESIANPOINT((1970.,0.,900.));
#369=IFCAXIS2PLACEMENT3D(#368,$,$);
#370=IFCLOCALPLACEMENT(#112,#369);
#371=IFCCARTESIANPOINT((0.,0.));
#372=IFCAXIS2PLACEMENT2D(#371,$);
#373=IFCRECTANGLEPROFILEDEF(.AREA.,'Void',#372,1800.,190.);
#374=IFCCARTESIANPOINT((0.,0.,0.));
#375=IFCAXIS2PLACEMENT3D(#374,$,$);
#376=IFCDIRECTION((0.,0.,1.));
#377=IFCEXTRUDEDAREASOLID(#373,#375,#376,1200.);
#378=IFCSHAPEREPRESENTATION(#15,'Body','SweptSolid',(#377));
#379=IFCPRODUCTDEFINITIONSHAPE($,$,(#378));
#380=IFCOPENINGELEMENT('3bsSuJSUZZ6FWS_snI0T6D',#5,'Dining room window opening',$,$,#370,#379,$,.OPENING.);
#381=IFCRELVOIDSELEMENT('2L7oxD$vyp1iG0Q5dyB154',#5,$,$,#122,#380);
#382=IFCCARTESIANPOINT((1970.,0.,900.));
#383=IFCAXIS2PLACEMENT3D(#382,$,$);
#384=IFCLOCALPLACEMENT(#112,#383);
#385=IFCCARTESIANPOINT((0.,0.));
#386=IFCAXIS2PLACEMENT2D(#385,$);
#387=IFCRECTANGLEPROFILEDEF(.AREA.,'Panel',#386,1800.,60.);
#388=IFCCARTESIANPOINT((0.,0.,0.));
#389=IFCAXIS2PLACEMENT3D(#388,$,$);
#390=IFCDIRECTION((0.,0.,1.));
#391=IFCEXTRUDEDAREASOLID(#387,#389,#390,1200.);
#392=IFCSHAPEREPRESENTATION(#15,'Body','SweptSolid',(#391));
#393=IFCPRODUCTDEFINITIONSHAPE($,$,(#392));
#394=IFCWINDOW('3YWkF0dKlffxWmHPy$nP$a',#5,'Dining room window',$,$,#384,#393,$,1200.,1800.,.WINDOW.,.SINGLE_PANEL.,$);
#395=IFCRELFILLSELEMENT('0_gLKyUjMQqMls$QZjHZfk',#5,$,$,#380,#394);
#396=IFCCARTESIANPOINT((2265.,0.,900.));
#397=IFCAXIS2PLACEMENT3D(#396,$,$);
#398=IFCLOCALPLACEMENT(#127,#397);
#399=IFCCARTESIANPOINT((0.,0.));
#400=IFCAXIS2PLACEMENT2D(#399,$);
#401=IFCRECTANGLEPROFILEDEF(.AREA.,'Void',#400,1200.,190.);
#402=IFCCARTESIANPOINT((0.,0.,0.));
#403=IFCAXIS2PLACEMENT3D(#402,$,$);
#404=IFCDIRECTION((0.,0.,1.));
#405=IFCEXTRUDEDAREASOLID(#401,#403,#404,1200.);
#406=IFCSHAPEREPRESENTATION(#15,'Body','SweptSolid',(#405));
#407=IFCPRODUCTDEFINITIONSHAPE($,$,(#406));
#408=IFCOPENINGELEMENT('1Lbz8EQeyTOB1cHvWP7FsE',#5,'Living window (west) opening',$,$,#398,#407,$,.OPENING.);
#409=IFCRELVOIDSELEMENT('1JlaJMjRsJSxJjVZJSk2yp',#5,$,$,#137,#408);
#410=IFCCARTESIANPOINT((2265.,0.,900.));
#411=IFCAXIS2PLACEMENT3D(#410,$,$);
#412=IFCLOCALPLACEMENT(#127,#411);
#413=IFCCARTESIANPOINT((0.,0.));
#414=IFCAXIS2PLACEMENT2D(#413,$);
#415=IFCRECTANGLEPROFILEDEF(.AREA.,'Panel',#414,1200.,60.);
#416=IFCCARTESIANPOINT((0.,0.,0.));
#417=IFCAXIS2PLACEMENT3D(#416,$,$);
#418=IFCDIRECTION((0.,0.,1.));
#419=IFCEXTRUDEDAREASOLID(#415,#417,#418,1200.);
#420=IFCSHAPEREPRESENTATION(#15,'Body','SweptSolid',(#419));
#421=IFCPRODUCTDEFINITIONSHAPE($,$,(#420));
#422=IFCWINDOW('07ZmmOJZPnKTUimOw3_9bd',#5,'Living window (west)',$,$,#412,#421,$,1200.,1200.,.WINDOW.,.SINGLE_PANEL.,$);
#423=IFCRELFILLSELEMENT('2uFL1bH_c_NXadpUlfdN2k',#5,$,$,#408,#422);
#424=IFCCARTESIANPOINT((2265.,0.,900.));
#425=IFCAXIS2PLACEMENT3D(#424,$,$);
#426=IFCLOCALPLACEMENT(#142,#425);
#427=IFCCARTESIANPOINT((0.,0.));
#428=IFCAXIS2PLACEMENT2D(#427,$);
#429=IFCRECTANGLEPROFILEDEF(.AREA.,'Void',#428,1200.,190.);
#430=IFCCARTESIANPOINT((0.,0.,0.));
#431=IFCAXIS2PLACEMENT3D(#430,$,$);
#432=IFCDIRECTION((0.,0.,1.));
#433=IFCEXTRUDEDAREASOLID(#429,#431,#432,1200.);
#434=IFCSHAPEREPRESENTATION(#15,'Body','SweptSolid',(#433));
#435=IFCPRODUCTDEFINITIONSHAPE($,$,(#434));
#436=IFCOPENINGELEMENT('1E8DYBPrUz6CxR4dlauGQM',#5,'Living window (east) opening',$,$,#426,#435,$,.OPENING.);
#437=IFCRELVOIDSELEMENT('2xQRiynZZBh4LFuLhgT48u',#5,$,$,#152,#436);
#438=IFCCARTESIANPOINT((2265.,0.,900.));
#439=IFCAXIS2PLACEMENT3D(#438,$,$);
#440=IFCLOCALPLACEMENT(#142,#439);
#441=IFCCARTESIANPOINT((0.,0.));
#442=IFCAXIS2PLACEMENT2D(#441,$);
#443=IFCRECTANGLEPROFILEDEF(.AREA.,'Panel',#442,1200.,60.);
#444=IFCCARTESIANPOINT((0.,0.,0.));
#445=IFCAXIS2PLACEMENT3D(#444,$,$);
#446=IFCDIRECTION((0.,0.,1.));
#447=IFCEXTRUDEDAREASOLID(#443,#445,#446,1200.);
#448=IFCSHAPEREPRESENTATION(#15,'Body','SweptSolid',(#447));
#449=IFCPRODUCTDEFINITIONSHAPE($,$,(#448));
#450=IFCWINDOW('1w9pufr1TDe0VYOM7FKvY2',#5,'Living window (east)',$,$,#440,#449,$,1200.,1200.,.WINDOW.,.SINGLE_PANEL.,$);
#451=IFCRELFILLSELEMENT('04YwmbkXob0Es1j9ifu9VB',#5,$,$,#436,#450);
#452=IFCCARTESIANPOINT((1430.,0.,0.));
#453=IFCAXIS2PLACEMENT3D(#452,$,$);
#454=IFCLOCALPLACEMENT(#187,#453);
#455=IFCCARTESIANPOINT((0.,0.));
#456=IFCAXIS2PLACEMENT2D(#455,$);
#457=IFCRECTANGLEPROFILEDEF(.AREA.,'Void',#456,800.,115.);
#458=IFCCARTESIANPOINT((0.,0.,0.));
#459=IFCAXIS2PLACEMENT3D(#458,$,$);
#460=IFCDIRECTION((0.,0.,1.));
#461=IFCEXTRUDEDAREASOLID(#457,#459,#460,2040.);
#462=IFCSHAPEREPRESENTATION(#15,'Body','SweptSolid',(#461));
#463=IFCPRODUCTDEFINITIONSHAPE($,$,(#462));
#464=IFCOPENINGELEMENT('081H8IiRzjRO8RYLJCfXPo',#5,'Bedroom door opening',$,$,#454,#463,$,.OPENING.);
#465=IFCRELVOIDSELEMENT('2aSagxr3uSYjLvqsCippNJ',#5,$,$,#197,#464);
#466=IFCCARTESIANPOINT((1430.,0.,0.));
#467=IFCAXIS2PLACEMENT3D(#466,$,$);
#468=IFCLOCALPLACEMENT(#187,#467);
#469=IFCCARTESIANPOINT((0.,0.));
#470=IFCAXIS2PLACEMENT2D(#469,$);
#471=IFCRECTANGLEPROFILEDEF(.AREA.,'Panel',#470,800.,60.);
#472=IFCCARTESIANPOINT((0.,0.,0.));
#473=IFCAXIS2PLACEMENT3D(#472,$,$);
#474=IFCDIRECTION((0.,0.,1.));
#475=IFCEXTRUDEDAREASOLID(#471,#473,#474,2040.);
#476=IFCSHAPEREPRESENTATION(#15,'Body','SweptSolid',(#475));
#477=IFCPRODUCTDEFINITIONSHAPE($,$,(#476));
#478=IFCDOOR('1Aqw6GVG5u4RDIBFUfdtOY',#5,'Bedroom door',$,$,#468,#477,$,2040.,800.,.DOOR.,.SINGLE_SWING_LEFT.,$);
#479=IFCRELFILLSELEMENT('29t_tc7nwMGXb7FA5P1rw0',#5,$,$,#464,#478);
#480=IFCCARTESIANPOINT((750.,0.,0.));
#481=IFCAXIS2PLACEMENT3D(#480,$,$);
#482=IFCLOCALPLACEMENT(#217,#481);
#483=IFCCARTESIANPOINT((0.,0.));
#484=IFCAXIS2PLACEMENT2D(#483,$);
#485=IFCRECTANGLEPROFILEDEF(.AREA.,'Void',#484,700.,115.);
#486=IFCCARTESIANPOINT((0.,0.,0.));
#487=IFCAXIS2PLACEMENT3D(#486,$,$);
#488=IFCDIRECTION((0.,0.,1.));
#489=IFCEXTRUDEDAREASOLID(#485,#487,#488,2040.);
#490=IFCSHAPEREPRESENTATION(#15,'Body','SweptSolid',(#489));
#491=IFCPRODUCTDEFINITIONSHAPE($,$,(#490));
#492=IFCOPENINGELEMENT('2KDdX_VJfoDyacMnwW6jqt',#5,'Bathroom door opening',$,$,#482,#491,$,.OPENING.);
#493=IFCRELVOIDSELEMENT('0o_E3Ub2CpFLQFQlBNlOgb',#5,$,$,#227,#492);
#494=IFCCARTESIANPOINT((750.,0.,0.));
#495=IFCAXIS2PLACEMENT3D(#494,$,$);
#496=IFCLOCALPLACEMENT(#217,#495);
#497=IFCCARTESIANPOINT((0.,0.));
#498=IFCAXIS2PLACEMENT2D(#497,$);
#499=IFCRECTANGLEPROFILEDEF(.AREA.,'Panel',#498,700.,60.);
#500=IFCCARTESIANPOINT((0.,0.,0.));
#501=IFCAXIS2PLACEMENT3D(#500,$,$);
#502=IFCDIRECTION((0.,0.,1.));
#503=IFCEXTRUDEDAREASOLID(#499,#501,#502,2040.);
#504=IFCSHAPEREPRESENTATION(#15,'Body','SweptSolid',(#503));
#505=IFCPRODUCTDEFINITIONSHAPE($,$,(#504));
#506=IFCDOOR('3hJfcua12i9FGbhVXnRId8',#5,'Bathroom door',$,$,#496,#505,$,2040.,700.,.DOOR.,.SINGLE_SWING_LEFT.,$);
#507=IFCRELFILLSELEMENT('1$ruVB00TU_lpDqmcewe9f',#5,$,$,#492,#506);
#508=IFCCARTESIANPOINT((-570.,3620.,2070.0321215068375));
#509=IFCCARTESIANPOINT((-570.,9170.,2070.0321215068375));
#510=IFCCARTESIANPOINT((8510.,9170.,2070.0321215068375));
#511=IFCCARTESIANPOINT((8510.,3620.,2070.0321215068375));
#512=IFCPOLYLOOP((#508,#509,#510,#511));
#513=IFCFACEOUTERBOUND(#512,.T.);
#514=IFCFACE((#513));
#515=IFCCARTESIANPOINT((8510.,6395.,2971.6842785531526));
#516=IFCCARTESIANPOINT((2205.,6395.,2971.6842785531526));
#517=IFCPOLYLOOP((#508,#511,#515,#516));
#518=IFCFACEOUTERBOUND(#517,.T.);
#519=IFCFACE((#518));
#520=IFCPOLYLOOP((#510,#509,#516,#515));
#521=IFCFACEOUTERBOUND(#520,.T.);
#522=IFCFACE((#521));
#523=IFCPOLYLOOP((#508,#516,#509));
#524=IFCFACEOUTERBOUND(#523,.T.);
#525=IFCFACE((#524));
#526=IFCPOLYLOOP((#511,#510,#515));
#527=IFCFACEOUTERBOUND(#526,.T.);
#528=IFCFACE((#527));
#529=IFCCLOSEDSHELL((#514,#519,#522,#525,#528));
#530=IFCFACETEDBREP(#529);
#531=IFCCARTESIANPOINT((0.,0.,0.));
#532=IFCAXIS2PLACEMENT3D(#531,$,$);
#533=IFCLOCALPLACEMENT(#25,#532);
#534=IFCSHAPEREPRESENTATION(#15,'Body','Brep',(#530));
#535=IFCPRODUCTDEFINITIONSHAPE($,$,(#534));
#536=IFCROOF('1kniNBiD9YSedPh2pFmn23',#5,'Roof over base',$,$,#533,#535,$,.HIP_ROOF.);
#537=IFCCARTESIANPOINT((2489.0598923241496,3770.));
#538=IFCCARTESIANPOINT((3857.3800303035628,6140.));
#539=IFCCARTESIANPOINT((2489.0598923241496,8510.));
#540=IFCCARTESIANPOINT((2269.0598923241496,8510.));
#541=IFCCARTESIANPOINT((3637.3800303035628,6140.));
#542=IFCCARTESIANPOINT((2269.0598923241496,3770.));
#543=IFCPOLYLINE((#537,#538,#539,#540,#541,#542,#537));
#544=IFCARBITRARYCLOSEDPROFILEDEF(.AREA.,'Roof section',#543);
#545=IFCCARTESIANPOINT((0.,-570.,0.));
#546=IFCDIRECTION((0.,1.,0.));
#547=IFCDIRECTION((0.,0.,1.));
#548=IFCAXIS2PLACEMENT3D(#545,#546,#547);
#549=IFCDIRECTION((0.,0.,1.));
#550=IFCEXTRUDEDAREASOLID(#544,#548,#549,6965.);
#551=IFCCARTESIANPOINT((0.,0.,0.));
#552=IFCAXIS2PLACEMENT3D(#551,$,$);
#553=IFCLOCALPLACEMENT(#25,#552);
#554=IFCSHAPEREPRESENTATION(#15,'Body','SweptSolid',(#550));
#555=IFCPRODUCTDEFINITIONSHAPE($,$,(#554));
#556=IFCROOF('2w8AUa1Ac61mbmqayNgmeh',#5,'Roof over rise',$,$,#553,#555,$,.GABLE_ROOF.);
#557=IFCCARTESIANPOINT((2500.,4170.));
#558=IFCCARTESIANPOINT((3637.3800303035628,6140.));
#559=IFCCARTESIANPOINT((2500.,8110.));
#560=IFCPOLYLINE((#557,#558,#559,#557));
#561=IFCARBITRARYCLOSEDPROFILEDEF(.AREA.,'Gable',#560);
#562=IFCCARTESIANPOINT((0.,-170.,0.));
#563=IFCDIRECTION((0.,1.,0.));
#564=IFCDIRECTION((0.,0.,1.));
#565=IFCAXIS2PLACEMENT3D(#562,#563,#564);
#566=IFCDIRECTION((0.,0.,1.));
#567=IFCEXTRUDEDAREASOLID(#561,#565,#566,170.);
#568=IFCCARTESIANPOINT((0.,0.,0.));
#569=IFCAXIS2PLACEMENT3D(#568,$,$);
#570=IFCLOCALPLACEMENT(#25,#569);
#571=IFCSHAPEREPRESENTATION(#15,'Body','SweptSolid',(#567));
#572=IFCPRODUCTDEFINITIONSHAPE($,$,(#571));
#573=IFCWALL('2img9d4rixPieKQAp$z4_i',#5,'Rise gable',$,$,#570,#572,$,.SOLIDWALL.);
#574=IFCRELCONTAINEDINSPATIALSTRUCTURE('1aNmgGcdIG3Ch2tBiOpBUS',#5,$,$,(#47,#62,#77,#92,#107,#122,#137,#152,#167,#182,#197,#212,#227,#254,#282,#310,#338,#366,#394,#422,#450,#478,#506,#536,#556,#573),#26);
#575=IFCCARTESIANPOINT((2397.5,6517.5));
#576=IFCCARTESIANPOINT((4992.5,6517.5));
#577=IFCCARTESIANPOINT((4992.5,8600.));
#578=IFCCARTESIANPOINT((2397.5,8600.));
#579=IFCPOLYLINE((#575,#576,#577,#578,#575));
#580=IFCARBITRARYCLOSEDPROFILEDEF(.AREA.,'Bedroom',#579);
#581=IFCCARTESIANPOINT((0.,0.,0.));
#582=IFCAXIS2PLACEMENT3D(#581,$,$);
#583=IFCDIRECTION((0.,0.,1.));
#584=IFCEXTRUDEDAREASOLID(#580,#582,#583,2200.);
#585=IFCCARTESIANPOINT((0.,0.,0.));
#586=IFCAXIS2PLACEMENT3D(#585,$,$);
#587=IFCLOCALPLACEMENT(#25,#586);
#588=IFCSHAPEREPRESENTATION(#15,'Body','SweptSolid',(#584));
#589=IFCPRODUCTDEFINITIONSHAPE($,$,(#588));
#590=IFCSPACE('1WolMsTTOxgH8jOQxaOSpY',#5,'Bedroom',$,$,#587,#589,'Bedroom',.ELEMENT.,.SPACE.,0.);
#591=IFCCARTESIANPOINT((6087.5,7147.5));
#592=IFCCARTESIANPOINT((7940.,7147.5));
#593=IFCCARTESIANPOINT((7940.,8600.));
#594=IFCCARTESIANPOINT((6087.5,8600.));
#595=IFCPOLYLINE((#591,#592,#593,#594,#591));
#596=IFCARBITRARYCLOSEDPROFILEDEF(.AREA.,'Bathroom',#595);
#597=IFCCARTESIANPOINT((0.,0.,0.));
#598=IFCAXIS2PLACEMENT3D(#597,$,$);
#599=IFCDIRECTION((0.,0.,1.));
#600=IFCEXTRUDEDAREASOLID(#596,#598,#599,2200.);
#601=IFCCARTESIANPOINT((0.,0.,0.));
#602=IFCAXIS2PLACEMENT3D(#601,$,$);
#603=IFCLOCALPLACEMENT(#25,#602);
#604=IFCSHAPEREPRESENTATION(#15,'Body','SweptSolid',(#600));
#605=IFCPRODUCTDEFINITIONSHAPE($,$,(#604));
#606=IFCSPACE('3Ku0xXoV$PR9jlVvMw9yFe',#5,'Bathroom',$,$,#603,#605,'Bathroom',.ELEMENT.,.SPACE.,0.);
#607=IFCCARTESIANPOINT((0.,4190.));
#608=IFCCARTESIANPOINT((4340.,4190.));
#609=IFCCARTESIANPOINT((4340.,0.));
#610=IFCCARTESIANPOINT((7940.,0.));
#611=IFCCARTESIANPOINT((7940.,7052.5));
#612=IFCCARTESIANPOINT((5992.5,7052.5));
#613=IFCCARTESIANPOINT((5992.5,8600.));
#614=IFCCARTESIANPOINT((5087.5,8600.));
#615=IFCCARTESIANPOINT((5087.5,6422.5));
#616=IFCCARTESIANPOINT((2302.5,6422.5));
#617=IFCCARTESIANPOINT((2302.5,8600.));
#618=IFCCARTESIANPOINT((0.,8600.));
#619=IFCPOLYLINE((#607,#608,#609,#610,#611,#612,#613,#614,#615,#616,#617,#618,#607));
#620=IFCARBITRARYCLOSEDPROFILEDEF(.AREA.,'Living',#619);
#621=IFCCARTESIANPOINT((0.,0.,0.));
#622=IFCAXIS2PLACEMENT3D(#621,$,$);
#623=IFCDIRECTION((0.,0.,1.));
#624=IFCEXTRUDEDAREASOLID(#620,#622,#623,2200.);
#625=IFCCARTESIANPOINT((0.,0.,0.));
#626=IFCAXIS2PLACEMENT3D(#625,$,$);
#627=IFCLOCALPLACEMENT(#25,#626);
#628=IFCSHAPEREPRESENTATION(#15,'Body','SweptSolid',(#624));
#629=IFCPRODUCTDEFINITIONSHAPE($,$,(#628));
#630=IFCSPACE('3h6$3R33ye$kqziK0VEzg7',#5,'Living',$,$,#627,#629,'Kitchen / dining / living',.ELEMENT.,.SPACE.,0.);
#631=IFCRELAGGREGATES('1ERgVgmzYC$WAxgk3nNN2Q',#5,$,$,#26,(#590,#606,#630));
ENDSEC;
END-ISO-10303-21;
